HIERARCHY
ROOT Hip
{
  OFFSET 0.0 0.0 0.0
  CHANNELS 6 Xposition Yposition Zposition Xrotation Yrotation Zrotation
  JOINT LowerSpine
  {
    OFFSET 0.0 0.061367 -0.03653
    CHANNELS 3 Xrotation Yrotation Zrotation
    JOINT MiddleSpine
    {
      OFFSET 0.0 0.056002 0.002633
      CHANNELS 3 Xrotation Yrotation Zrotation
      JOINT Chest
      {
        OFFSET 0.0 0.069296 -0.013882
        CHANNELS 3 Xrotation Yrotation Zrotation
        JOINT Neck
        {
          OFFSET 0.0 0.156156 -0.002923
          CHANNELS 3 Xrotation Yrotation Zrotation
          JOINT Head
          {
            OFFSET 0.0 0.088183 0.023986
            CHANNELS 3 Xrotation Yrotation Zrotation
            End Site
            {
              OFFSET 1e-06 0.123215 0.003678
            }
          }
        }
        JOINT LClavicle
        {
          OFFSET 0.014189 0.150698 0.046467
          CHANNELS 3 Xrotation Yrotation Zrotation
          JOINT LShoulder
          {
            OFFSET 0.082893 0.021616 -0.034976
            CHANNELS 3 Xrotation Yrotation Zrotation
            JOINT LForearm
            {
              OFFSET 0.195645 -0.000695 -0.001695
              CHANNELS 3 Xrotation Yrotation Zrotation
              JOINT LHand
              {
                OFFSET 0.163209 0.000474 -0.000977
                CHANNELS 3 Xrotation Yrotation Zrotation
                End Site
                {
                  OFFSET 0.0 0.006864 0.0
                }
              }
            }
          }
        }
        JOINT RClavicle
        {
          OFFSET -0.014189 0.150698 0.046467
          CHANNELS 3 Xrotation Yrotation Zrotation
          JOINT RShoulder
          {
            OFFSET -0.082908 0.021619 -0.034982
            CHANNELS 3 Xrotation Yrotation Zrotation
            JOINT RForearm
            {
              OFFSET -0.195645 -0.000695 -0.001695
              CHANNELS 3 Xrotation Yrotation Zrotation
              JOINT RHand
              {
                OFFSET -0.163209 0.000474 -0.000977
                CHANNELS 3 Xrotation Yrotation Zrotation
                End Site
                {
                  OFFSET 0.0 0.006864 0.0
                }
              }
            }
          }
        }
      }
    }
  }
  JOINT RThigh
  {
    OFFSET -0.072558 0.02774 -0.005953
    CHANNELS 3 Xrotation Yrotation Zrotation
    JOINT RShin
    {
      OFFSET -0.005253 -0.285537 0.0
      CHANNELS 3 Xrotation Yrotation Zrotation
      JOINT RFoot
      {
        OFFSET 0.0 -0.28038 0.0
        CHANNELS 3 Xrotation Yrotation Zrotation
        JOINT RToe
        {
          OFFSET 0.0 -0.030816 0.064441
          CHANNELS 3 Xrotation Yrotation Zrotation
          End Site
          {
            OFFSET 0.0 0.0 0.043231
          }
        }
      }
    }
  }
  JOINT LThigh
  {
    OFFSET 0.072557 0.027741 -0.005953
    CHANNELS 3 Xrotation Yrotation Zrotation
    JOINT LShin
    {
      OFFSET 0.005253 -0.285539 0.0
      CHANNELS 3 Xrotation Yrotation Zrotation
      JOINT LFoot
      {
        OFFSET 0.0 -0.28038 0.0
        CHANNELS 3 Xrotation Yrotation Zrotation
        JOINT LToe
        {
          OFFSET 0.0 -0.030816 0.064441
          CHANNELS 3 Xrotation Yrotation Zrotation
          End Site
          {
            OFFSET 0.0 0.0 0.043231
          }
        }
      }
    }
  }
}
MOTION
Frames: 16
Frame Time: 0.03333333333333333
0.025999 0.595634 0.002585 -0.602931 -2.850108 -0.234247 -1.001655 -0.342838 -0.311583 0.64583 1.687048 -0.16245 0.416724 2.602957 -1.144403 -1.932889 0.085362 0.117107 0.000214 0.114116 0.018958 0.551773 -0.043306 -14.766393 20.616312 -28.387161 -54.081181 11.549259 -32.304989 -1.091806 0.138916 0.154571 -0.093549 0.488668 -1.251532 13.359879 17.353092 31.437937 58.528473 5.015486 44.100899 -0.580923 0.210897 -0.307434 0.020135 -2.098549 -1.152873 0.822365 4.326887 -1.391329 0.212182 -2.306339 1.805943 0.792111 0.23273 0.607391 0.073217 3.671803 7.698419 4.381661 4.335732 8.357502 -3.347814 -2.392495 0.971064 0.459549 0.01199 -0.167353 -0.009052 
0.023116 0.588857 0.007139 -2.052587 -4.999309 0.93947 -0.486894 -0.029531 0.477317 0.476807 1.138805 -0.058442 1.747199 3.166988 -2.86418 -0.703374 0.048637 -0.221669 0.017388 -0.071276 -0.017101 -0.116116 -0.108892 -15.316532 20.58572 -26.543182 -55.076336 10.552942 -27.811623 -0.564681 0.07784 0.093857 -0.072659 -0.057345 0.196642 12.974886 14.825346 28.087666 56.467487 1.969109 51.178146 2.846365 -0.060184 -0.156527 0.009581 -0.362038 1.221394 1.111378 5.352401 0.787628 -1.408528 -1.309554 1.639904 0.794505 0.019726 0.283193 0.106421 8.184207 10.450839 2.995147 2.410497 8.784478 -2.856187 -2.415918 1.082723 0.826316 0.05435 -0.165513 -0.049054 
0.017871 0.586314 0.007581 -2.649745 -2.843881 1.162224 -0.315604 -0.064304 0.360841 0.311233 0.782264 -0.191315 2.480076 2.693629 -3.651796 -0.401999 0.068628 -0.071771 0.008891 -0.082217 -0.033971 -0.032331 -0.062035 -14.818389 21.186182 -27.126114 -54.333569 11.232597 -29.164629 -0.88134 0.044555 0.069914 -0.038797 -0.148681 1.086033 13.087766 15.957523 30.994549 57.277847 3.346323 53.034542 5.411087 -0.059468 -0.150437 0.010561 -0.190038 1.325608 0.636091 5.454296 0.922685 -1.01853 -1.383747 1.628986 0.763028 -0.002114 0.171702 0.076716 7.163033 10.978405 3.694723 3.704459 9.116405 -2.966753 -2.194536 0.752443 0.587798 0.050693 -0.098423 -0.029342 
0.015974 0.584054 0.006129 -2.928526 -1.772247 1.179816 -0.167361 -0.126609 0.313953 0.236465 0.661537 -0.167141 2.819198 2.903888 -4.095975 -0.190432 0.133723 0.031598 0.006783 -0.124307 -0.034892 0.011054 -0.130801 -14.534387 20.92552 -27.378357 -54.47514 11.273457 -29.177099 -1.101245 0.041477 0.073487 -0.032704 -0.186039 1.3226 13.223757 14.772577 33.388878 58.574287 5.008959 49.63789 5.870532 -0.09319 -0.128557 0.004426 -0.570402 1.432432 0.616233 6.309062 0.717794 -0.937045 -1.537792 1.42611 0.6354 -0.018651 0.157242 0.079926 6.388266 11.654243 4.137232 4.281368 9.309196 -3.154282 -2.304861 0.623131 0.540452 0.054441 -0.086762 -0.028434 
0.01526 0.58328 0.004431 -3.243885 -1.945218 1.280298 -0.008738 -0.175558 0.266702 0.171286 0.644915 -0.125957 2.81468 3.413814 -3.946462 -0.038046 0.162462 0.09749 0.003814 -0.133397 -0.032981 0.026147 -0.108335 -14.284836 20.42308 -27.394638 -54.725788 11.136437 -29.162756 -1.161751 0.03771 0.070201 -0.028624 -0.201491 1.348701 13.382389 13.304452 34.889637 59.569557 6.118556 44.635147 5.564261 -0.103766 -0.111481 0.001859 -0.714967 1.468283 0.569117 7.018723 0.569951 -0.755602 -1.705777 1.290332 0.577433 -0.026492 0.149754 0.078874 6.268154 12.231381 4.139937 4.334607 9.352462 -3.208785 -2.444713 0.532117 0.502123 0.049281 -0.077231 -0.027413 
0.012875 0.582451 0.003529 -3.495994 -2.492778 1.356353 0.144527 -0.213587 0.232644 0.130875 0.654605 -0.090502 2.639742 3.832271 -3.722719 0.080733 0.190631 0.131192 0.002604 -0.139324 -0.031405 0.014423 -0.122153 -14.026416 19.966024 -27.552942 -54.749226 11.022845 -29.245979 -1.132958 0.037407 0.070826 -0.028591 -0.236571 1.26763 13.460268 12.01512 36.173702 60.197083 6.910496 40.321121 5.028431 -0.108903 -0.103688 0.000316 -0.7936 1.499128 0.640046 7.450101 0.48113 -0.609304 -1.792722 1.186616 0.527474 -0.031177 0.150773 0.080324 6.32367 12.532164 4.12159 4.203379 9.322091 -3.323301 -2.569581 0.461082 0.465939 0.048174 -0.075828 -0.029334 
0.009841 0.581857 0.002571 -3.534482 -2.924421 1.473652 0.254292 -0.223156 0.195053 0.087548 0.64057 -0.106271 2.266724 4.023498 -3.538631 0.159191 0.195446 0.150091 0.000327 -0.128894 -0.02815 -0.015136 -0.10041 -13.727998 19.818508 -27.681368 -54.566921 11.092452 -29.553936 -1.170348 0.034019 0.064446 -0.024208 -0.268058 1.212567 13.523205 11.225554 37.336441 60.508781 7.66292 36.749279 4.687094 -0.098932 -0.093288 0.001462 -0.998479 1.472276 0.685649 7.772687 0.443484 -0.455055 -1.840373 1.110882 0.511164 -0.026717 0.143127 0.076052 6.114467 12.894287 4.265119 4.23173 9.505155 -3.483119 -2.587819 0.395399 0.400512 0.041428 -0.066663 -0.026834 
0.008031 0.581357 0.001915 -3.356329 -3.204322 1.581822 0.311155 -0.222245 0.17036 0.036072 0.626067 -0.129789 1.88566 4.122674 -3.418779 0.19477 0.190806 0.158089 -0.001487 -0.116393 -0.025364 -0.039629 -0.062895 -13.484722 19.90753 -27.755487 -54.347694 11.281728 -29.986519 -1.217443 0.030775 0.058219 -0.020126 -0.295466 1.171586 13.562427 10.817756 38.263016 60.615383 8.247703 33.996593 4.433401 -0.086768 -0.085266 0.003088 -1.277966 1.432229 0.63076 8.068028 0.394363 -0.313753 -1.881181 1.052847 0.499627 -0.021788 0.136514 0.071227 5.696002 13.222926 4.446622 4.34589 9.742951 -3.638314 -2.537182 0.314868 0.331675 0.035115 -0.059247 -0.024506 
0.007328 0.580853 0.001459 -3.139839 -3.275748 1.662541 0.335477 -0.216783 0.150541 0.001682 0.62993 -0.152636 1.644556 4.241787 -3.327287 0.197106 0.185069 0.159266 -0.003257 -0.104004 -0.023308 -0.049757 -0.018301 -13.294852 20.045071 -27.749701 -54.183323 11.454064 -30.406582 -1.283193 0.028223 0.053635 -0.017437 -0.30627 1.123321 13.599637 10.490298 39.04232 60.686634 8.598351 31.806959 4.279118 -0.070284 -0.082641 0.00501 -1.529473 1.505931 0.50705 8.350127 0.38857 -0.188074 -1.957921 1.00016 0.484986 -0.014696 0.135074 0.065773 5.277217 13.413719 4.579795 4.439826 9.902884 -3.733991 -2.495984 0.238366 0.264283 0.029646 -0.053641 -0.022394 
0.007255 0.580359 0.00072 -3.057312 -3.162481 1.696854 0.354931 -0.213985 0.137909 -0.013934 0.645134 -0.16445 1.576972 4.371241 -3.263358 0.189815 0.18199 0.161046 -0.004765 -0.096099 -0.022112 -0.058553 0.000635 -13.146471 20.103163 -27.721611 -54.107693 11.54593 -30.65296 -1.328921 0.026993 0.051643 -0.016561 -0.322078 1.105776 13.620076 10.161441 39.618553 60.762192 8.747752 30.167088 4.165834 -0.057706 -0.082657 0.006339 -1.697502 1.668211 0.401885 8.587834 0.443581 -0.111194 -2.049098 0.955251 0.464529 -0.009276 0.136785 0.062265 4.996448 13.468097 4.665325 4.478684 9.937188 -3.782056 -2.494815 0.181608 0.21348 0.026271 -0.050979 -0.02155 
0.007545 0.579937 -0.000224 -3.093787 -2.904853 1.690191 0.37693 -0.215235 0.133604 -0.013329 0.669739 -0.16381 1.636085 4.501188 -3.230778 0.187509 0.184118 0.164599 -0.005634 -0.094514 -0.021741 -0.069275 -0.007929 -13.045979 20.084862 -27.711493 -54.115452 11.563907 -30.711788 -1.350337 0.02708 0.052193 -0.017064 -0.344924 1.112654 13.627819 9.778168 40.008381 60.905571 8.725042 28.931139 4.091265 -0.050358 -0.0843 0.006914 -1.812928 1.906522 0.331817 8.80972 0.549848 -0.086692 -2.154534 0.905999 0.435231 -0.006862 0.140898 0.061189 4.84456 13.418293 4.695917 4.437768 9.872517 -3.797771 -2.533095 0.154135 0.186164 0.025055 -0.05059 -0.021637 
0.007927 0.579599 -0.001161 -3.245404 -2.551722 1.66133 0.400155 -0.219217 0.136698 0.007671 0.700252 -0.154348 1.819504 4.629567 -3.229701 0.186594 0.189925 0.169202 -0.00606 -0.097327 -0.022165 -0.079032 -0.042356 -12.986363 19.994856 -27.749197 -54.176476 11.532535 -30.619749 -1.347663 0.02807 0.054626 -0.018441 -0.373223 1.140523 13.628886 9.376818 40.275494 61.071476 8.567519 28.009485 4.05802 -0.047526 -0.086559 0.006893 -1.845695 2.205336 0.304651 8.980698 0.708861 -0.112165 -2.279061 0.858738 0.401661 -0.006845 0.146206 0.061782 4.826701 13.309342 4.692371 4.337452 9.744587 -3.78776 -2.601948 0.152624 0.179068 0.025631 -0.05238 -0.02239 
0.008167 0.579314 -0.001981 -3.460927 -2.171729 1.624484 0.423656 -0.224185 0.144144 0.037214 0.731025 -0.143455 2.061061 4.750232 -3.266772 0.188317 0.199216 0.173957 -0.006143 -0.103755 -0.023026 -0.087599 -0.086382 -12.939949 19.874405 -27.82571 -54.250771 11.475992 -30.440828 -1.335062 0.029658 0.058221 -0.020343 -0.403896 1.179442 13.616887 8.969682 40.501015 61.255795 8.41366 27.274767 4.025395 -0.048129 -0.089083 0.006459 -1.832635 2.537138 0.33124 9.120861 0.896562 -0.170354 -2.396536 0.818469 0.368847 -0.008041 0.151999 0.063587 4.880391 13.183064 4.704348 4.237278 9.607393 -3.775549 -2.676856 0.164567 0.183583 0.027618 -0.05581 -0.023817 
0.008266 0.579084 -0.002576 -3.690372 -1.809291 1.591028 0.443192 -0.228958 0.155406 0.07036 0.759595 -0.133175 2.328699 4.857004 -3.329619 0.190151 0.209741 0.177789 -0.005993 -0.112063 -0.024026 -0.093605 -0.1326 -12.904187 19.753237 -27.941528 -54.313885 11.423481 -30.227962 -1.317385 0.031492 0.062306 -0.022353 -0.434753 1.22335 13.595154 8.591609 40.707401 61.435085 8.287424 26.650335 3.993466 -0.050839 -0.091359 0.005839 -1.791592 2.87763 0.394672 9.23069 1.094933 -0.247793 -2.50461 0.785502 0.33859 -0.009773 0.157592 0.066003 4.963651 13.056834 4.740479 4.157914 9.484461 -3.764843 -2.747518 0.182994 0.194298 0.030353 -0.060151 -0.025673 
0.008291 0.578895 -0.002938 -3.886779 -1.480229 1.562359 0.458756 -0.232778 0.166457 0.102885 0.782428 -0.12205 2.57963 4.942552 -3.393188 0.190409 0.219894 0.180695 -0.00581 -0.120051 -0.024773 -0.096813 -0.176253 -12.876847 19.637148 -28.081068 -54.363091 11.386225 -30.026247 -1.302521 0.033258 0.066134 -0.024095 -0.462675 1.263123 13.571898 8.263278 40.887596 61.59626 8.1761 26.145418 3.973302 -0.053675 -0.093219 0.005301 -1.740575 3.171956 0.469692 9.31251 1.270464 -0.323499 -2.60035 0.759539 0.312309 -0.011395 0.162625 0.068389 5.036052 12.932087 4.79112 4.105741 9.376017 -3.752537 -2.806368 0.201919 0.20627 0.03301 -0.064309 -0.027437 
0.008295 0.578734 -0.003133 -4.040069 -1.190323 1.536149 0.47022 -0.235419 0.176903 0.132679 0.800749 -0.112211 2.7911 5.007051 -3.460267 0.188381 0.228859 0.181658 -0.005556 -0.127471 -0.025511 -0.09869 -0.213849 -12.852498 19.549587 -28.223837 -54.385319 11.362581 -29.87254 -1.291676 0.034971 0.069682 -0.025731 -0.485904 1.296952 13.549474 7.999607 41.048416 61.731026 8.096047 25.763031 3.959433 -0.056375 -0.095046 0.004794 -1.695583 3.410449 0.546085 9.377734 1.413946 -0.390762 -2.681309 0.739192 0.290267 -0.013201 0.166824 0.070538 5.076698 12.817265 4.853267 4.08066 9.284808 -3.745196 -2.849012 0.216615 0.216449 0.035644 -0.068321 -0.029029 
